<?xml version="1.0" encoding="utf-8"?>
<!-- Generator: Adobe Illustrator 23.0.0, SVG Export Plug-In . SVG Version: 6.00 Build 0)  -->
<svg version="1.1" id="Capa_1" xmlns="http://www.w3.org/2000/svg" xmlns:xlink="http://www.w3.org/1999/xlink" x="0px" y="0px"
	 viewBox="0 0 673.7 135.1" style="enable-background:new 0 0 673.7 135.1;" xml:space="preserve">
<style type="text/css">
	.st0{fill:#FFFFFF;}
</style>
<g>
	<path class="st0" d="M162.9,6.1c-12.3-8.9-28.7-7.8-39.7,2.2c-8.3-3-17-4.5-25.9-4.5c-9,0-17.7,1.5-26,4.6
		c-4.7-4-10.5-6.5-16.7-7.3C46.7,0,38.9,2.1,32.4,6.8C12.8,21,1.2,43.9,1.2,67.9s11.7,46.9,31.2,61.1c5.6,4.1,12.1,6.1,18.5,6.1
		c7.6,0,15.2-2.8,21.2-8.2c8.3,3,17,4.5,25.9,4.5c9,0,17.7-1.5,26-4.6c4.7,4,10.5,6.5,16.7,7.3c1.2,0.1,2.5,0.2,3.7,0.2
		c6.6,0,13-2.1,18.4-6.1c19.5-14.2,31.2-37,31.2-61.1S182.4,20.3,162.9,6.1z M122.5,19.1c11,4.6,20.6,12.1,27.6,21.8
		c0.4,0.5,0.7,1.1,1.1,1.6c4.3,7,3.5,14.5,0.8,19.8h-12.4c0.9-5.4-0.4-11-3.7-15.7c-5.1-7-12.1-12.5-20.1-15.9
		c-5.8-2.4-12-3.7-18.4-3.7c-6.4,0-12.5,1.2-18.3,3.7c-8,3.3-15,8.8-20.2,15.9c-3.4,4.7-4.7,10.3-3.8,15.7H42.5
		c-3.4-6.9-2.8-15,1.9-21.4c1.8-2.4,3.7-4.7,5.8-6.8c2.6-2.7,5.4-5.1,8.4-7.3c0,0,0,0,0,0c1.2-0.9,2.4-1.7,3.6-2.5
		c0.1,0,0.1-0.1,0.2-0.1c0.6-0.4,1.1-0.7,1.7-1.1c2.6-1.5,5.2-2.8,8-4l0,0c8-3.3,16.5-5,25.2-5C106,14.1,114.5,15.8,122.5,19.1z
		 M127.9,82.3c-4,5.5-9.5,9.8-15.7,12.4c-4.5,1.9-9.4,2.8-14.3,2.8c-5,0-9.8-1-14.3-2.9c-6.3-2.6-11.7-6.9-15.7-12.4
		c-2.4-3.3-2.4-6.8-1.4-9.5H77c2.9,0,5.2-2.3,5.2-5.2c0-2.9-2.3-5.2-5.2-5.2H66c-1-2.7-1-6.3,1.4-9.5c4-5.5,9.5-9.8,15.7-12.4
		c4.5-1.9,9.4-2.9,14.3-2.9c5,0,9.8,1,14.3,2.9c6.3,2.6,11.7,6.9,15.7,12.4c2.4,3.3,2.4,6.8,1.4,9.5h-10.6c-2.9,0-5.2,2.3-5.2,5.2
		c0,2.9,2.3,5.2,5.2,5.2h11.1C130.3,75.5,130.3,79,127.9,82.3z M38.6,120.6c-16.9-12.2-26.9-31.9-26.9-52.7
		c0-20.7,10.1-40.4,26.9-52.7c3.9-2.9,8.2-4.1,12.2-4.1c3.3,0,6.5,0.8,9.3,2.2c-0.3,0.2-0.6,0.3-0.9,0.5c-0.2,0.1-0.4,0.2-0.6,0.3
		c-0.7,0.4-1.4,0.8-2,1.2c0,0-0.1,0-0.1,0.1c-0.6,0.4-1.3,0.8-1.9,1.2c-0.2,0.1-0.4,0.3-0.6,0.4c-0.5,0.3-0.9,0.6-1.4,1
		c-0.2,0.1-0.4,0.3-0.6,0.4c-0.5,0.4-1,0.7-1.4,1.1c-0.1,0.1-0.3,0.2-0.4,0.3c-0.6,0.5-1.2,1-1.8,1.5c-0.1,0.1-0.2,0.2-0.3,0.3
		c-0.5,0.4-1,0.8-1.4,1.3c-0.2,0.2-0.4,0.3-0.6,0.5c-0.4,0.4-0.8,0.8-1.2,1.1c-0.2,0.2-0.4,0.3-0.5,0.5c-0.5,0.5-0.9,0.9-1.4,1.4
		c-0.1,0.1-0.2,0.2-0.3,0.3C42,27.5,41.5,28,41,28.6c-0.1,0.2-0.3,0.3-0.4,0.5c-0.4,0.4-0.8,0.9-1.2,1.3c-0.2,0.2-0.3,0.4-0.5,0.6
		c-0.4,0.4-0.7,0.9-1.1,1.3c-0.2,0.2-0.3,0.4-0.5,0.6c-0.5,0.6-1,1.2-1.4,1.9c-7.3,10-8.1,22.8-2.1,33.5c-5,10.4-4,22.6,2.9,32
		c0.5,0.6,0.9,1.3,1.4,1.9c0.1,0.2,0.3,0.4,0.5,0.6c0.3,0.4,0.7,0.9,1.1,1.3c0.2,0.2,0.3,0.4,0.5,0.6c0.4,0.4,0.7,0.9,1.1,1.3
		c0.2,0.2,0.3,0.4,0.5,0.5c0.5,0.6,1.1,1.2,1.6,1.7c0,0,0.1,0.1,0.1,0.1c0.5,0.5,1,1.1,1.6,1.6c0.2,0.2,0.4,0.3,0.5,0.5
		c0.4,0.4,0.8,0.8,1.2,1.1c0.2,0.2,0.4,0.4,0.6,0.5c0.4,0.4,0.9,0.8,1.3,1.1c0.2,0.1,0.3,0.3,0.5,0.4c0.6,0.5,1.2,1,1.8,1.5
		c0.1,0.1,0.1,0.1,0.2,0.2c0.5,0.4,1.1,0.9,1.7,1.3c0.2,0.1,0.4,0.3,0.6,0.4c0.4,0.3,0.9,0.6,1.3,1c0.2,0.2,0.4,0.3,0.7,0.4
		c0.5,0.3,1,0.6,1.4,1c0.2,0.1,0.4,0.2,0.5,0.4c0.7,0.4,1.3,0.8,2,1.2c0.1,0.1,0.2,0.1,0.3,0.2c0.5,0.3,0.9,0.5,1.4,0.8
		C54.7,125.5,46.1,126.1,38.6,120.6z M72.8,116c-11-4.6-20.6-12.1-27.6-21.8c-0.8-1.1-1.4-2.1-1.9-3.2c-3.3-6.6-2.4-13.3,0-18.2
		h12.4c-0.9,5.4,0.4,11,3.7,15.7c5.1,7,12.1,12.5,20.1,15.9c5.8,2.4,12,3.7,18.4,3.7c6.3,0,12.5-1.2,18.3-3.7
		c8-3.3,15-8.8,20.2-15.9c3.4-4.7,4.7-10.3,3.8-15.7h12.7c3.4,6.9,2.8,15-1.9,21.4c-1.3,1.8-2.7,3.6-4.2,5.2
		c-6.5,7.2-14.5,12.9-23.5,16.6c-8,3.3-16.5,5-25.2,5C89.3,121,80.8,119.3,72.8,116z M156.7,119.9c-7.2,5.2-15.3,5-21.6,1.9
		c0.3-0.2,0.6-0.4,0.9-0.5c0.2-0.1,0.4-0.2,0.6-0.3c0.7-0.4,1.4-0.8,2-1.2c0,0,0,0,0.1,0c0.6-0.4,1.3-0.8,1.9-1.3
		c0.2-0.1,0.4-0.3,0.6-0.4c0.5-0.3,0.9-0.6,1.4-1c0.2-0.1,0.4-0.3,0.6-0.4c0.5-0.4,0.9-0.7,1.4-1.1c0.1-0.1,0.3-0.2,0.5-0.4
		c0.6-0.5,1.2-1,1.8-1.5c0.1-0.1,0.2-0.2,0.4-0.3c0.5-0.4,1-0.8,1.4-1.2c0.2-0.2,0.4-0.3,0.6-0.5c0.4-0.4,0.8-0.7,1.2-1.1
		c0.2-0.2,0.4-0.4,0.6-0.5c0.5-0.4,0.9-0.9,1.4-1.4c0.1-0.1,0.2-0.2,0.3-0.3c0.5-0.6,1.1-1.1,1.6-1.7c0.1-0.2,0.3-0.3,0.4-0.5
		c0.4-0.4,0.7-0.8,1.1-1.3c0.2-0.2,0.4-0.4,0.5-0.6c0.3-0.4,0.7-0.8,1-1.3c0.2-0.2,0.3-0.4,0.5-0.6c0.5-0.6,0.9-1.2,1.4-1.8
		c0,0,0-0.1,0.1-0.1c7.3-10,8.1-22.8,2.2-33.5c0.6-1.3,1.2-2.6,1.6-4c1.1-3.4,1.6-6.9,1.5-10.3c-0.1-6.3-2.2-12.5-6-17.8
		c-0.5-0.6-0.9-1.3-1.4-1.9c-0.2-0.2-0.3-0.4-0.5-0.6c-0.3-0.4-0.7-0.9-1-1.3c-0.2-0.2-0.4-0.4-0.5-0.6c-0.4-0.4-0.7-0.8-1.1-1.3
		c-0.2-0.2-0.3-0.4-0.5-0.5c-0.5-0.6-1.1-1.2-1.6-1.7c0,0-0.1-0.1-0.1-0.1c-0.5-0.5-1-1-1.5-1.5c-0.2-0.2-0.4-0.3-0.5-0.5
		c-0.4-0.4-0.8-0.7-1.2-1.1c-0.2-0.2-0.4-0.4-0.6-0.6c-0.4-0.4-0.8-0.7-1.3-1.1c-0.2-0.1-0.3-0.3-0.5-0.4c-0.6-0.5-1.2-1-1.8-1.5
		c-0.1-0.1-0.2-0.1-0.2-0.2c-0.5-0.4-1.1-0.8-1.6-1.2c-0.2-0.2-0.4-0.3-0.6-0.5c-0.4-0.3-0.9-0.6-1.3-0.9c-0.2-0.2-0.4-0.3-0.7-0.5
		c-0.5-0.3-0.9-0.6-1.4-0.9c-0.2-0.1-0.4-0.2-0.6-0.4c-0.7-0.4-1.3-0.8-2-1.2c-0.1-0.1-0.3-0.1-0.4-0.2c-0.4-0.3-0.9-0.5-1.3-0.8
		c6.4-3.6,15-4.2,22.6,1.3c16.8,12.2,26.9,32,26.9,52.7S173.6,107.6,156.7,119.9z"/>
</g>
<g>
	<g transform="translate(195.222203, 115.653802)">
		<g>
			<path class="st0" d="M71.2-88v-11H36.9v57.2h34.4v-11H49.4v-12h18.7v-11H49.4v-12H71.2z"/>
		</g>
	</g>
</g>
<g>
	<g transform="translate(217.995823, 115.653802)">
		<g>
			<path class="st0" d="M56.5-41.8h12.2v-65.2H56.5V-41.8z"/>
		</g>
	</g>
</g>
<g>
	<g transform="translate(229.635647, 115.653802)">
		<g>
			<path class="st0" d="M105.5-61c0-11.9-8.2-19.8-20.5-19.8s-21,8-21,19.9c0,11.9,8.6,19.8,21.3,19.8c10.6,0,17.6-5.6,19.5-13.9
				H93.2c-1,3.1-3.8,4.9-8,4.9c-5.5,0-8.4-3.3-8.9-8.8h29.1V-61z M85.2-71.5c4.1,0,6.5,1.9,7.7,5.2H77.1
				C78.4-69.5,80.9-71.5,85.2-71.5z"/>
		</g>
	</g>
</g>
<g>
	<g transform="translate(253.927511, 115.653802)">
		<g>
			<path class="st0" d="M106.7-41.1c11.4,0,19.2-6.7,20.9-16.2H115c-1.2,3.2-4.4,5.3-8.3,5.4c-5.2-0.1-9.1-3.9-9.1-9.1
				c0-5.1,3.8-9,9.1-9.1c3.9,0.1,7.1,2.2,8.3,5.4h12.6c-1.6-9.5-9.4-16.2-20.9-16.2c-12.8,0-21.2,8.4-21.2,19.8S94-41.1,106.7-41.1z
				"/>
		</g>
	</g>
</g>
<g>
	<g transform="translate(278.219372, 115.653802)">
		<g>
			<path class="st0" d="M132.6-70.5v-9.4h-9.1v-14.7h-12.1v14.7H105v9.4h6.4v15c0,8.1,6.9,14.4,15,14.4c2.6,0,5.1-0.6,6.1-1.2v-9.4
				h-4.6c-2.6,0-4.4-2-4.4-5.1v-13.6H132.6z"/>
		</g>
	</g>
</g>
<g>
	<g transform="translate(293.604193, 115.653802)">
		<g>
			<path class="st0" d="M146-80.7c-4.5,0-8.2,2.3-10.7,6v-5.2h-12.2v38.1h12.2V-60c0-6.3,4.3-9.9,10.3-9.9c1.4,0,2.7,0.2,3.5,0.4
				v-10.8C148.3-80.6,147.2-80.7,146-80.7z"/>
		</g>
	</g>
</g>
<g>
	<g transform="translate(309.495097, 115.653802)">
		<g>
			<path class="st0" d="M155.8-41.1c12.8,0,21.1-8.4,21.1-19.8s-8.4-19.8-21.1-19.8c-12.8,0-21.2,8.4-21.2,19.8S143-41.1,155.8-41.1
				z M155.8-51.8c-5.2-0.1-9.1-3.9-9.1-9.1c0-5.1,3.8-9,9.1-9.1c5.1,0.1,9.1,3.9,9.1,9.1C164.8-55.8,160.9-51.9,155.8-51.8z"/>
		</g>
	</g>
</g>
<g>
	<g transform="translate(334.394242, 115.653802)">
		<g>
			<path class="st0" d="M159.1-41.8h12.2v-65.2h-12.2V-41.8z"/>
		</g>
	</g>
</g>
<g>
	<g transform="translate(346.03407, 115.653802)">
		<g>
			<path class="st0" d="M188-41.1c12.8,0,21.1-8.4,21.1-19.8s-8.4-19.8-21.1-19.8s-21.2,8.4-21.2,19.8S175.2-41.1,188-41.1z
				 M188-51.8c-5.2-0.1-9.1-3.9-9.1-9.1c0-5.1,3.8-9,9.1-9.1c5.1,0.1,9.1,3.9,9.1,9.1C197-55.8,193.1-51.9,188-51.8z"/>
		</g>
	</g>
</g>
<g>
	<g transform="translate(370.933216, 115.653802)">
		<g>
			<path class="st0" d="M214.3-79.9l-8,25l-8.1-25h-13l15.2,38.1H212l15.4-38.1H214.3z"/>
		</g>
	</g>
</g>
<g>
	<g transform="translate(391.98616, 115.653802)">
		<g>
			<path class="st0" d="M248.7-61c0-11.9-8.2-19.8-20.5-19.8c-12.3,0-21,8-21,19.9c0,11.9,8.6,19.8,21.3,19.8
				c10.6,0,17.6-5.6,19.5-13.9h-11.7c-1,3.1-3.8,4.9-8,4.9c-5.5,0-8.4-3.3-8.9-8.8h29.1V-61z M228.4-71.5c4.1,0,6.5,1.9,7.7,5.2
				h-15.8C221.6-69.5,224.1-71.5,228.4-71.5z"/>
		</g>
	</g>
</g>
<g>
	<g transform="translate(416.278015, 115.653802)">
		<g>
			<path class="st0" d="M254.2-80.7c-4.5,0-8.2,2.3-10.7,6v-5.2h-12.2v38.1h12.2V-60c0-6.3,4.3-9.9,10.3-9.9c1.4,0,2.7,0.2,3.5,0.4
				v-10.8C256.5-80.6,255.4-80.7,254.2-80.7z"/>
		</g>
	</g>
</g>
<g>
	<g transform="translate(196.725251, 140.964788)">
		<g>
			<path class="st0" d="M58.2-37.7l-4.8,18.2h-4.8l-3.1-15.1l-3.3,15.1h-4.9l-4.6-18.2h3.9l3.1,15.4L43-37.5h5.1l3.1,15.2l3.3-15.5
				H58.2z"/>
		</g>
	</g>
</g>
<g>
	<g transform="translate(212.231037, 140.964788)">
		<g>
			<path class="st0" d="M56.1-38.1c2.8,0,4.9,0.9,6.6,2.6c1.6,1.7,2.4,4,2.4,6.9c0,2.9-0.8,5.2-2.4,6.9c-1.6,1.7-3.8,2.6-6.6,2.6
				c-2.8,0-5-0.9-6.6-2.6c-1.6-1.7-2.4-4-2.4-6.9c0-2.9,0.8-5.2,2.4-6.9C51.1-37.2,53.3-38.1,56.1-38.1z M52.3-23.6
				c0.9,1.2,2.2,1.8,3.8,1.8c1.6,0,2.9-0.6,3.8-1.8c0.9-1.2,1.4-2.8,1.4-4.9c0-2.1-0.5-3.8-1.4-5c-0.9-1.2-2.2-1.8-3.8-1.8
				c-1.6,0-2.9,0.6-3.9,1.8c-0.9,1.2-1.4,2.8-1.4,5C50.9-26.5,51.4-24.8,52.3-23.6z"/>
		</g>
	</g>
</g>
<g>
	<g transform="translate(224.627497, 140.964788)">
		<g>
			<path class="st0" d="M72.2-24.1c0.2,2.2,0.7,3.7,1.3,4.6h-4c-0.5-1.2-0.8-2.6-0.9-4.1c-0.2-2.1-1.1-3.1-2.4-3.2
				c-0.3,0-0.8,0-1.4,0h-2.1v7.3h-3.6v-18.2h6.6c1,0,1.9,0.1,2.6,0.1c1.4,0.2,2.6,0.7,3.4,1.4c0.9,0.8,1.3,1.9,1.3,3.4
				c0,1.1-0.3,2.1-1,2.8c-0.6,0.7-1.5,1.3-2.6,1.6C71.1-27.7,72-26.3,72.2-24.1z M62.7-29.6h2.5c0.7,0,1.2,0,1.5,0
				c1.7-0.2,2.6-1,2.6-2.6c0-0.8-0.2-1.5-0.6-1.9c-0.4-0.4-1-0.6-1.8-0.7c-0.4-0.1-0.9-0.1-1.5-0.1h-2.6V-29.6z"/>
		</g>
	</g>
</g>
<g>
	<g transform="translate(235.469294, 140.964788)">
		<g>
			<path class="st0" d="M81.8-22.6v3H68.6v-18.2h3.6v15.2H81.8z"/>
		</g>
	</g>
</g>
<g>
	<g transform="translate(245.610785, 140.964788)">
		<g>
			<path class="st0" d="M86.2-37.6c2.2,0.3,4.1,1.1,5.4,2.6c1.4,1.5,2.1,3.5,2.1,6.1c0,2.7-0.7,4.8-2.1,6.4
				c-1.4,1.6-3.2,2.5-5.4,2.8c-0.6,0.1-1.4,0.1-2.3,0.1h-6.2v-18.2h6.3C84.8-37.7,85.5-37.7,86.2-37.6z M85.3-22.5
				c1.4-0.2,2.5-0.8,3.3-1.9c0.8-1.1,1.2-2.6,1.2-4.4c0-1.7-0.4-3.1-1.2-4.1c-0.8-1-1.9-1.6-3.2-1.8c-0.5-0.1-1.2-0.1-1.9-0.1h-2.2
				v12.5h2.1C84.3-22.4,84.9-22.4,85.3-22.5z"/>
		</g>
	</g>
</g>
<g>
	<g transform="translate(257.531036, 140.964788)">
		<g>
			<path class="st0" d="M111.9-37.7L107-19.5h-4.8l-3.1-15.1l-3.3,15.1H91l-4.6-18.2h3.9l3.1,15.4l3.2-15.1h5.1l3.1,15.2l3.3-15.5
				H111.9z"/>
		</g>
	</g>
</g>
<g>
	<g transform="translate(273.036822, 140.964788)">
		<g>
			<path class="st0" d="M105.4-19.5h-3.6v-18.2h3.6V-19.5z"/>
		</g>
	</g>
</g>
<g>
	<g transform="translate(278.808441, 140.964788)">
		<g>
			<path class="st0" d="M115.4-37.6c2.2,0.3,4.1,1.1,5.4,2.6c1.4,1.5,2.1,3.5,2.1,6.1c0,2.7-0.7,4.8-2.1,6.4
				c-1.4,1.6-3.2,2.5-5.4,2.8c-0.6,0.1-1.4,0.1-2.3,0.1h-6.2v-18.2h6.3C114.1-37.7,114.8-37.7,115.4-37.6z M114.6-22.5
				c1.4-0.2,2.5-0.8,3.3-1.9c0.8-1.1,1.2-2.6,1.2-4.4c0-1.7-0.4-3.1-1.2-4.1c-0.8-1-1.9-1.6-3.2-1.8c-0.5-0.1-1.2-0.1-1.9-0.1h-2.2
				v12.5h2.1C113.5-22.4,114.2-22.4,114.6-22.5z"/>
		</g>
	</g>
</g>
<g>
	<g transform="translate(290.728692, 140.964788)">
		<g>
			<path class="st0" d="M130.5-22.4v2.9h-13.1v-18.2h12.9v2.9H121v4.8h8.6v2.9H121v4.8H130.5z"/>
		</g>
	</g>
</g>
<g>
	<g transform="translate(301.038261, 140.964788)">
	</g>
</g>
<g>
	<g transform="translate(305.437292, 140.964788)">
		<g>
			<path class="st0" d="M134-34.9v4.8h8.3v2.9H134v7.7h-3.6v-18.2h12.9v2.9H134z"/>
		</g>
	</g>
</g>
<g>
	<g transform="translate(315.424726, 140.964788)">
		<g>
			<path class="st0" d="M152.3-22.4v2.9h-13.1v-18.2H152v2.9h-9.2v4.8h8.6v2.9h-8.6v4.8H152.3z"/>
		</g>
	</g>
</g>
<g>
	<g transform="translate(325.734283, 140.964788)">
		<g>
			<path class="st0" d="M154.3-38.1c2.1,0,3.7,0.5,4.8,1.6c1.1,1,1.7,2.4,2,4.1h-3.7c-0.1-0.9-0.4-1.7-1-2.2
				c-0.5-0.5-1.3-0.8-2.2-0.8c-0.8,0-1.4,0.2-1.9,0.6c-0.5,0.4-0.7,0.9-0.7,1.6c0,0.8,0.3,1.4,0.9,1.9c0.6,0.4,1.6,0.8,3,1.1
				c2,0.5,3.4,1.1,4.4,2.1c0.9,0.9,1.4,2.1,1.4,3.6c0,1.6-0.7,3-2,3.9c-1.3,1-2.9,1.4-4.8,1.4c-2.2,0-4-0.5-5.3-1.5
				c-1.3-1-2.1-2.4-2.2-4.3h3.7c0.2,1,0.6,1.7,1.3,2.2c0.7,0.5,1.5,0.8,2.4,0.8c0.8,0,1.5-0.2,2.1-0.6c0.6-0.4,0.9-1,0.9-1.7
				c0-0.8-0.3-1.4-0.9-1.9c-0.6-0.5-1.5-0.9-2.8-1.2c-2-0.5-3.6-1.1-4.6-1.9c-1-0.8-1.5-2-1.5-3.6c0-1.6,0.6-2.9,1.9-3.9
				C150.9-37.6,152.5-38.1,154.3-38.1z"/>
		</g>
	</g>
</g>
<g>
	<g transform="translate(335.931793, 140.964788)">
		<g>
			<path class="st0" d="M171.5-34.9h-6.2v15.4h-3.6v-15.4h-6.2v-2.9h16V-34.9z"/>
		</g>
	</g>
</g>
<g>
	<g transform="translate(346.339401, 140.964788)">
		<g>
			<path class="st0" d="M170.1-19.5h-3.6v-18.2h3.6V-19.5z"/>
		</g>
	</g>
</g>
<g>
	<g transform="translate(352.111026, 140.964788)">
		<g>
			<path class="st0" d="M181-19.5h-4.6L170-37.7h3.9l4.8,15.4l4.9-15.4h3.9L181-19.5z"/>
		</g>
	</g>
</g>
<g>
	<g transform="translate(363.429016, 140.964788)">
		<g>
			<path class="st0" d="M191.3-25h-6.1l-1.8,5.5h-3.9l6.6-18.2h4.6l6.4,18.2h-4L191.3-25z M188.3-34.6l-2.1,6.7h4.3L188.3-34.6z"/>
		</g>
	</g>
</g>
<g>
	<g transform="translate(374.578944, 140.964788)">
		<g>
			<path class="st0" d="M204.5-22.6v3h-13.1v-18.2h3.6v15.2H204.5z"/>
		</g>
	</g>
</g>
<g>
	<g transform="translate(384.720441, 140.964788)">
		<g>
			<path class="st0" d="M206.3-38.1c2.1,0,3.7,0.5,4.8,1.6c1.1,1,1.7,2.4,2,4.1h-3.7c-0.1-0.9-0.4-1.7-1-2.2
				c-0.5-0.5-1.3-0.8-2.2-0.8c-0.8,0-1.4,0.2-1.9,0.6c-0.5,0.4-0.7,0.9-0.7,1.6c0,0.8,0.3,1.4,0.9,1.9c0.6,0.4,1.6,0.8,3,1.1
				c2,0.5,3.4,1.1,4.4,2.1c0.9,0.9,1.4,2.1,1.4,3.6c0,1.6-0.7,3-2,3.9c-1.3,1-2.9,1.4-4.8,1.4c-2.2,0-4-0.5-5.3-1.5
				c-1.3-1-2.1-2.4-2.2-4.3h3.7c0.2,1,0.6,1.7,1.3,2.2c0.7,0.5,1.5,0.8,2.4,0.8c0.8,0,1.5-0.2,2.1-0.6c0.6-0.4,0.9-1,0.9-1.7
				c0-0.8-0.3-1.4-0.9-1.9c-0.6-0.5-1.5-0.9-2.8-1.2c-2-0.5-3.6-1.1-4.6-1.9c-1-0.8-1.5-2-1.5-3.6c0-1.6,0.6-2.9,1.9-3.9
				C203-37.6,204.5-38.1,206.3-38.1z"/>
		</g>
	</g>
</g>
</svg>
