<svg xmlns="http://www.w3.org/2000/svg" xmlns:xlink="http://www.w3.org/1999/xlink" width="500" zoomAndPan="magnify" viewBox="0 0 375 374.999991" height="500" preserveAspectRatio="xMidYMid meet" version="1.0"><defs><g/><clipPath id="id1"><path d="M 55.113281 30 L 315.300781 30 L 315.300781 213.777344 L 55.113281 213.777344 Z M 55.113281 30 " clip-rule="nonzero"/></clipPath></defs><g clip-path="url(#id1)"><path fill="#ffffff" d="M 273.179688 39.152344 C 256.621094 27.085938 234.449219 28.566406 219.648438 42.085938 C 208.457031 38.003906 196.710938 35.9375 184.65625 35.9375 C 172.574219 35.9375 160.785156 38.023438 149.550781 42.128906 C 143.183594 36.742188 135.34375 33.285156 127.007812 32.273438 C 116.472656 30.992188 105.863281 33.796875 97.140625 40.15625 C 70.785156 59.375 55.050781 90.292969 55.050781 122.863281 C 55.050781 155.433594 70.785156 186.347656 97.144531 205.5625 C 104.71875 211.078125 113.457031 213.765625 122.136719 213.765625 C 132.441406 213.765625 142.652344 209.964844 150.683594 202.628906 C 161.871094 206.707031 173.617188 208.773438 185.667969 208.773438 C 197.753906 208.773438 209.542969 206.6875 220.773438 202.582031 C 227.140625 207.96875 234.984375 211.425781 243.316406 212.4375 C 244.988281 212.636719 246.652344 212.738281 248.316406 212.738281 C 257.160156 212.738281 265.839844 209.90625 273.1875 204.554688 C 299.539062 185.339844 315.28125 154.421875 315.28125 121.851562 C 315.273438 89.289062 299.539062 58.371094 273.179688 39.152344 Z M 218.699219 56.859375 C 233.550781 63.058594 246.449219 73.257812 255.988281 86.332031 C 256.5 87.039062 256.976562 87.753906 257.414062 88.464844 C 263.230469 97.996094 262.078125 108.035156 258.550781 115.308594 L 241.828125 115.308594 C 243.042969 107.992188 241.351562 100.359375 236.785156 94.097656 C 229.84375 84.585938 220.457031 77.167969 209.644531 72.652344 C 201.785156 69.359375 193.445312 67.691406 184.863281 67.691406 C 176.300781 67.691406 167.976562 69.355469 160.128906 72.628906 C 149.292969 77.152344 139.886719 84.570312 132.949219 94.097656 C 128.320312 100.4375 126.628906 108.023438 127.863281 115.308594 L 110.765625 115.308594 C 106.167969 105.949219 107.035156 94.976562 113.34375 86.335938 C 115.726562 83.0625 118.328125 79.972656 121.113281 77.082031 C 124.59375 73.464844 128.371094 70.15625 132.398438 67.1875 C 132.417969 67.171875 132.433594 67.160156 132.457031 67.144531 C 134.050781 65.972656 135.683594 64.855469 137.347656 63.796875 C 137.421875 63.746094 137.492188 63.703125 137.570312 63.660156 C 138.34375 63.171875 139.121094 62.691406 139.910156 62.226562 C 143.363281 60.195312 146.964844 58.390625 150.683594 56.839844 L 150.714844 56.832031 C 161.488281 52.335938 172.90625 50.058594 184.664062 50.058594 C 196.457031 50.050781 207.90625 52.339844 218.699219 56.859375 Z M 225.980469 142.3125 C 220.558594 149.75 213.222656 155.546875 204.765625 159.070312 C 198.640625 161.625 192.148438 162.921875 185.46875 162.921875 C 178.765625 162.921875 172.265625 161.621094 166.136719 159.054688 C 157.699219 155.53125 150.375 149.738281 144.953125 142.3125 C 141.730469 137.894531 141.714844 133.148438 143.023438 129.417969 L 157.378906 129.417969 C 161.277344 129.417969 164.4375 126.253906 164.4375 122.359375 C 164.4375 118.464844 161.277344 115.304688 157.378906 115.304688 L 142.429688 115.304688 C 141.136719 111.582031 141.125 106.824219 144.351562 102.40625 C 149.773438 94.972656 157.109375 89.171875 165.566406 85.652344 C 171.691406 83.09375 178.183594 81.796875 184.863281 81.796875 C 191.566406 81.796875 198.066406 83.101562 204.195312 85.667969 C 212.632812 89.191406 219.957031 94.980469 225.378906 102.410156 C 228.601562 106.832031 228.617188 111.574219 227.308594 115.308594 L 212.953125 115.308594 C 209.054688 115.308594 205.894531 118.46875 205.894531 122.367188 C 205.894531 126.261719 209.054688 129.421875 212.953125 129.421875 L 227.902344 129.421875 C 229.195312 133.140625 229.207031 137.886719 225.980469 142.3125 Z M 105.457031 194.164062 C 82.730469 177.597656 69.164062 150.941406 69.164062 122.863281 C 69.164062 94.78125 82.730469 68.128906 105.457031 51.5625 C 110.777344 47.683594 116.46875 46.035156 121.925781 46.035156 C 126.390625 46.035156 130.707031 47.136719 134.539062 49.035156 C 134.125 49.265625 133.722656 49.503906 133.316406 49.742188 C 133.046875 49.898438 132.777344 50.050781 132.511719 50.210938 C 131.597656 50.75 130.6875 51.304688 129.792969 51.875 C 129.753906 51.902344 129.714844 51.929688 129.671875 51.953125 C 128.820312 52.496094 127.976562 53.054688 127.136719 53.625 C 126.875 53.804688 126.613281 53.988281 126.347656 54.171875 C 125.722656 54.605469 125.105469 55.046875 124.488281 55.492188 C 124.214844 55.691406 123.933594 55.894531 123.65625 56.101562 C 123.007812 56.582031 122.367188 57.074219 121.722656 57.574219 C 121.523438 57.734375 121.316406 57.890625 121.117188 58.046875 C 120.285156 58.707031 119.464844 59.378906 118.648438 60.0625 C 118.496094 60.191406 118.347656 60.320312 118.199219 60.449219 C 117.542969 61.011719 116.890625 61.578125 116.246094 62.15625 C 115.992188 62.386719 115.746094 62.613281 115.496094 62.84375 C 114.9375 63.351562 114.394531 63.867188 113.847656 64.390625 C 113.605469 64.621094 113.359375 64.855469 113.117188 65.09375 C 112.484375 65.707031 111.863281 66.335938 111.246094 66.972656 C 111.125 67.101562 110.992188 67.226562 110.867188 67.355469 C 110.132812 68.121094 109.410156 68.902344 108.703125 69.691406 C 108.511719 69.902344 108.324219 70.117188 108.132812 70.328125 C 107.609375 70.917969 107.097656 71.511719 106.582031 72.109375 C 106.351562 72.386719 106.125 72.660156 105.890625 72.9375 C 105.410156 73.519531 104.933594 74.105469 104.464844 74.699219 C 104.257812 74.957031 104.054688 75.210938 103.851562 75.472656 C 103.199219 76.3125 102.550781 77.164062 101.925781 78.027344 C 92.039062 91.582031 91.050781 108.9375 99.019531 123.347656 C 92.234375 137.359375 93.617188 153.941406 102.929688 166.710938 C 103.5625 167.574219 104.210938 168.425781 104.863281 169.269531 C 105.0625 169.53125 105.273438 169.785156 105.480469 170.042969 C 105.949219 170.632812 106.425781 171.21875 106.90625 171.796875 C 107.140625 172.078125 107.378906 172.359375 107.609375 172.636719 C 108.101562 173.21875 108.605469 173.792969 109.113281 174.367188 C 109.316406 174.597656 109.527344 174.835938 109.734375 175.066406 C 110.453125 175.863281 111.175781 176.644531 111.914062 177.414062 C 111.949219 177.457031 111.992188 177.492188 112.03125 177.535156 C 112.726562 178.261719 113.441406 178.972656 114.160156 179.675781 C 114.394531 179.902344 114.632812 180.128906 114.867188 180.351562 C 115.414062 180.871094 115.960938 181.390625 116.515625 181.898438 C 116.78125 182.140625 117.042969 182.378906 117.304688 182.617188 C 117.882812 183.132812 118.46875 183.640625 119.058594 184.152344 C 119.285156 184.34375 119.507812 184.539062 119.726562 184.730469 C 120.542969 185.414062 121.367188 186.089844 122.199219 186.75 C 122.289062 186.820312 122.382812 186.890625 122.472656 186.960938 C 123.214844 187.542969 123.964844 188.117188 124.726562 188.679688 C 124.996094 188.878906 125.269531 189.074219 125.539062 189.265625 C 126.136719 189.703125 126.742188 190.132812 127.355469 190.558594 C 127.652344 190.765625 127.945312 190.96875 128.242188 191.167969 C 128.882812 191.605469 129.53125 192.035156 130.191406 192.453125 C 130.433594 192.613281 130.679688 192.773438 130.921875 192.929688 C 131.820312 193.496094 132.722656 194.054688 133.628906 194.589844 C 133.78125 194.675781 133.933594 194.761719 134.078125 194.847656 C 134.695312 195.210938 135.316406 195.566406 135.9375 195.917969 C 127.273438 200.785156 115.65625 201.59375 105.457031 194.164062 Z M 151.628906 187.855469 C 136.773438 181.652344 123.878906 171.464844 114.339844 158.382812 C 113.308594 156.96875 112.441406 155.535156 111.722656 154.097656 C 107.285156 145.226562 108.511719 136.132812 111.777344 129.40625 L 128.5 129.40625 C 127.285156 136.722656 128.976562 144.355469 133.542969 150.617188 C 140.484375 160.128906 149.867188 167.546875 160.679688 172.0625 C 168.539062 175.355469 176.878906 177.023438 185.464844 177.023438 C 194.023438 177.023438 202.34375 175.359375 210.195312 172.078125 C 221.035156 167.558594 230.433594 160.140625 237.378906 150.613281 C 242.003906 144.269531 243.695312 136.683594 242.464844 129.398438 L 259.558594 129.398438 C 264.15625 138.757812 263.285156 149.730469 256.980469 158.371094 C 255.191406 160.824219 253.285156 163.179688 251.269531 165.421875 C 242.527344 175.144531 231.734375 182.828125 219.640625 187.875 C 208.855469 192.375 197.425781 194.652344 185.664062 194.652344 C 173.871094 194.664062 162.421875 192.375 151.628906 187.855469 Z M 264.867188 193.15625 C 255.203125 200.203125 244.296875 199.894531 235.789062 195.6875 C 236.210938 195.449219 236.625 195.199219 237.042969 194.957031 C 237.296875 194.8125 237.550781 194.664062 237.804688 194.515625 C 238.722656 193.96875 239.636719 193.410156 240.539062 192.839844 C 240.566406 192.824219 240.589844 192.804688 240.617188 192.789062 C 241.484375 192.238281 242.339844 191.667969 243.195312 191.089844 C 243.453125 190.910156 243.710938 190.726562 243.972656 190.546875 C 244.597656 190.117188 245.222656 189.671875 245.835938 189.222656 C 246.117188 189.023438 246.394531 188.820312 246.667969 188.613281 C 247.316406 188.132812 247.957031 187.640625 248.59375 187.144531 C 248.800781 186.980469 249.003906 186.824219 249.210938 186.664062 C 250.042969 186.003906 250.859375 185.332031 251.667969 184.652344 C 251.832031 184.519531 251.988281 184.378906 252.144531 184.242188 C 252.792969 183.691406 253.429688 183.128906 254.0625 182.5625 C 254.324219 182.328125 254.578125 182.09375 254.835938 181.859375 C 255.382812 181.355469 255.921875 180.855469 256.457031 180.339844 C 256.710938 180.097656 256.960938 179.859375 257.210938 179.617188 C 257.824219 179.011719 258.4375 178.402344 259.042969 177.78125 C 259.183594 177.640625 259.324219 177.5 259.457031 177.351562 C 260.1875 176.589844 260.90625 175.820312 261.613281 175.035156 C 261.8125 174.808594 262.015625 174.582031 262.214844 174.355469 C 262.722656 173.78125 263.226562 173.203125 263.722656 172.621094 C 263.964844 172.332031 264.203125 172.046875 264.441406 171.761719 C 264.910156 171.199219 265.371094 170.625 265.824219 170.054688 C 266.039062 169.777344 266.261719 169.507812 266.472656 169.230469 C 267.09375 168.433594 267.707031 167.628906 268.304688 166.804688 C 268.332031 166.769531 268.363281 166.730469 268.390625 166.691406 C 278.277344 153.140625 279.265625 135.785156 271.292969 121.371094 C 272.144531 119.621094 272.863281 117.828125 273.457031 116.011719 C 274.9375 111.460938 275.628906 106.746094 275.53125 102.042969 C 275.355469 93.582031 272.625 85.195312 267.386719 78.015625 C 266.753906 77.152344 266.109375 76.296875 265.453125 75.457031 C 265.246094 75.191406 265.035156 74.929688 264.832031 74.671875 C 264.367188 74.089844 263.894531 73.503906 263.417969 72.933594 C 263.179688 72.644531 262.945312 72.359375 262.699219 72.078125 C 262.214844 71.5 261.71875 70.933594 261.214844 70.371094 C 261.003906 70.128906 260.792969 69.890625 260.578125 69.648438 C 259.863281 68.859375 259.144531 68.078125 258.402344 67.3125 C 258.347656 67.253906 258.289062 67.199219 258.234375 67.144531 C 257.550781 66.4375 256.859375 65.738281 256.15625 65.054688 C 255.910156 64.816406 255.667969 64.582031 255.421875 64.351562 C 254.886719 63.839844 254.351562 63.335938 253.804688 62.839844 C 253.535156 62.589844 253.261719 62.339844 252.988281 62.097656 C 252.421875 61.589844 251.851562 61.09375 251.273438 60.597656 C 251.042969 60.398438 250.804688 60.191406 250.570312 59.992188 C 249.761719 59.308594 248.945312 58.640625 248.117188 57.980469 C 248.011719 57.894531 247.902344 57.8125 247.792969 57.726562 C 247.070312 57.160156 246.335938 56.597656 245.59375 56.046875 C 245.316406 55.839844 245.035156 55.640625 244.757812 55.4375 C 244.167969 55.007812 243.574219 54.582031 242.96875 54.167969 C 242.664062 53.957031 242.363281 53.746094 242.054688 53.539062 C 241.421875 53.113281 240.789062 52.691406 240.144531 52.28125 C 239.886719 52.113281 239.632812 51.945312 239.371094 51.777344 C 238.484375 51.214844 237.589844 50.664062 236.679688 50.128906 C 236.511719 50.035156 236.339844 49.9375 236.171875 49.839844 C 235.574219 49.488281 234.96875 49.136719 234.363281 48.800781 C 243.042969 43.925781 254.65625 43.121094 264.855469 50.550781 C 287.585938 67.117188 301.152344 93.777344 301.152344 121.851562 C 301.152344 149.925781 287.597656 176.585938 264.867188 193.15625 Z M 264.867188 193.15625 " fill-opacity="1" fill-rule="nonzero"/></g><g fill="#ffffff" fill-opacity="1"><g transform="translate(0.0457126, 304.045488)"><g><path d="M 33.515625 -38.167969 L 33.515625 -47.3125 L 5.046875 -47.3125 L 5.046875 0 L 33.515625 0 L 33.515625 -9.148438 L 15.457031 -9.148438 L 15.457031 -19.082031 L 30.910156 -19.082031 L 30.910156 -28.230469 L 15.457031 -28.230469 L 15.457031 -38.167969 Z M 33.515625 -38.167969 "/></g></g></g><g fill="#ffffff" fill-opacity="1"><g transform="translate(35.527053, 304.045488)"><g><path d="M 4.652344 0 L 14.746094 0 L 14.746094 -54.015625 L 4.652344 -54.015625 Z M 4.652344 0 "/></g></g></g><g fill="#ffffff" fill-opacity="1"><g transform="translate(53.661788, 304.045488)"><g><path d="M 36.746094 -15.851562 C 36.746094 -25.707031 29.964844 -32.253906 19.792969 -32.253906 C 9.621094 -32.253906 2.445312 -25.628906 2.445312 -15.769531 C 2.445312 -5.914062 9.542969 0.628906 20.109375 0.628906 C 28.863281 0.628906 34.695312 -4.023438 36.273438 -10.882812 L 26.574219 -10.882812 C 25.707031 -8.359375 23.421875 -6.859375 19.949219 -6.859375 C 15.378906 -6.859375 13.011719 -9.621094 12.617188 -14.117188 L 36.746094 -14.117188 Z M 19.949219 -24.523438 C 23.339844 -24.523438 25.3125 -22.949219 26.339844 -20.1875 L 13.246094 -20.1875 C 14.273438 -22.867188 16.402344 -24.523438 19.949219 -24.523438 Z M 19.949219 -24.523438 "/></g></g></g><g fill="#ffffff" fill-opacity="1"><g transform="translate(91.508566, 304.045488)"><g><path d="M 20.03125 0.628906 C 29.492188 0.628906 35.957031 -4.890625 37.300781 -12.773438 L 26.890625 -12.773438 C 25.863281 -10.09375 23.261719 -8.359375 20.03125 -8.28125 C 15.691406 -8.359375 12.539062 -11.511719 12.539062 -15.769531 C 12.539062 -20.03125 15.691406 -23.183594 20.03125 -23.261719 C 23.261719 -23.183594 25.863281 -21.449219 26.890625 -18.769531 L 37.300781 -18.769531 C 35.957031 -26.652344 29.492188 -32.171875 20.03125 -32.171875 C 9.460938 -32.171875 2.445312 -25.234375 2.445312 -15.769531 C 2.445312 -6.308594 9.460938 0.628906 20.03125 0.628906 Z M 20.03125 0.628906 "/></g></g></g><g fill="#ffffff" fill-opacity="1"><g transform="translate(129.355344, 304.045488)"><g><path d="M 23.65625 -23.734375 L 23.65625 -31.542969 L 16.164062 -31.542969 L 16.164062 -43.6875 L 6.152344 -43.6875 L 6.152344 -31.542969 L 0.867188 -31.542969 L 0.867188 -23.734375 L 6.152344 -23.734375 L 6.152344 -11.277344 C 6.152344 -4.574219 11.828125 0.628906 18.53125 0.628906 C 20.660156 0.628906 22.789062 0.15625 23.578125 -0.394531 L 23.578125 -8.199219 L 19.792969 -8.199219 C 17.664062 -8.199219 16.164062 -9.855469 16.164062 -12.460938 L 16.164062 -23.734375 Z M 23.65625 -23.734375 "/></g></g></g><g fill="#ffffff" fill-opacity="1"><g transform="translate(153.324829, 304.045488)"><g><path d="M 23.578125 -32.171875 C 19.871094 -32.171875 16.796875 -30.28125 14.746094 -27.207031 L 14.746094 -31.542969 L 4.652344 -31.542969 L 4.652344 0 L 14.746094 0 L 14.746094 -15.0625 C 14.746094 -20.265625 18.292969 -23.261719 23.261719 -23.261719 C 24.445312 -23.261719 25.46875 -23.105469 26.179688 -22.949219 L 26.179688 -31.859375 C 25.46875 -32.09375 24.523438 -32.171875 23.578125 -32.171875 Z M 23.578125 -32.171875 "/></g></g></g><g fill="#ffffff" fill-opacity="1"><g transform="translate(178.082784, 304.045488)"><g><path d="M 20.03125 0.628906 C 30.597656 0.628906 37.535156 -6.308594 37.535156 -15.769531 C 37.535156 -25.234375 30.597656 -32.171875 20.03125 -32.171875 C 9.460938 -32.171875 2.445312 -25.234375 2.445312 -15.769531 C 2.445312 -6.308594 9.460938 0.628906 20.03125 0.628906 Z M 20.03125 -8.28125 C 15.691406 -8.359375 12.539062 -11.511719 12.539062 -15.769531 C 12.539062 -20.03125 15.691406 -23.183594 20.03125 -23.261719 C 24.289062 -23.183594 27.519531 -20.03125 27.519531 -15.769531 C 27.519531 -11.511719 24.289062 -8.359375 20.03125 -8.28125 Z M 20.03125 -8.28125 "/></g></g></g><g fill="#ffffff" fill-opacity="1"><g transform="translate(216.875759, 304.045488)"><g><path d="M 4.652344 0 L 14.746094 0 L 14.746094 -54.015625 L 4.652344 -54.015625 Z M 4.652344 0 "/></g></g></g><g fill="#ffffff" fill-opacity="1"><g transform="translate(235.010501, 304.045488)"><g><path d="M 20.03125 0.628906 C 30.597656 0.628906 37.535156 -6.308594 37.535156 -15.769531 C 37.535156 -25.234375 30.597656 -32.171875 20.03125 -32.171875 C 9.460938 -32.171875 2.445312 -25.234375 2.445312 -15.769531 C 2.445312 -6.308594 9.460938 0.628906 20.03125 0.628906 Z M 20.03125 -8.28125 C 15.691406 -8.359375 12.539062 -11.511719 12.539062 -15.769531 C 12.539062 -20.03125 15.691406 -23.183594 20.03125 -23.261719 C 24.289062 -23.183594 27.519531 -20.03125 27.519531 -15.769531 C 27.519531 -11.511719 24.289062 -8.359375 20.03125 -8.28125 Z M 20.03125 -8.28125 "/></g></g></g><g fill="#ffffff" fill-opacity="1"><g transform="translate(273.803476, 304.045488)"><g><path d="M 23.65625 -31.542969 L 17.03125 -10.804688 L 10.332031 -31.542969 L -0.394531 -31.542969 L 12.222656 0 L 21.6875 0 L 34.460938 -31.542969 Z M 23.65625 -31.542969 "/></g></g></g><g fill="#ffffff" fill-opacity="1"><g transform="translate(306.603973, 304.045488)"><g><path d="M 36.746094 -15.851562 C 36.746094 -25.707031 29.964844 -32.253906 19.792969 -32.253906 C 9.621094 -32.253906 2.445312 -25.628906 2.445312 -15.769531 C 2.445312 -5.914062 9.542969 0.628906 20.109375 0.628906 C 28.863281 0.628906 34.695312 -4.023438 36.273438 -10.882812 L 26.574219 -10.882812 C 25.707031 -8.359375 23.421875 -6.859375 19.949219 -6.859375 C 15.378906 -6.859375 13.011719 -9.621094 12.617188 -14.117188 L 36.746094 -14.117188 Z M 19.949219 -24.523438 C 23.339844 -24.523438 25.3125 -22.949219 26.339844 -20.1875 L 13.246094 -20.1875 C 14.273438 -22.867188 16.402344 -24.523438 19.949219 -24.523438 Z M 19.949219 -24.523438 "/></g></g></g><g fill="#ffffff" fill-opacity="1"><g transform="translate(344.450756, 304.045488)"><g><path d="M 23.578125 -32.171875 C 19.871094 -32.171875 16.796875 -30.28125 14.746094 -27.207031 L 14.746094 -31.542969 L 4.652344 -31.542969 L 4.652344 0 L 14.746094 0 L 14.746094 -15.0625 C 14.746094 -20.265625 18.292969 -23.261719 23.261719 -23.261719 C 24.445312 -23.261719 25.46875 -23.105469 26.179688 -22.949219 L 26.179688 -31.859375 C 25.46875 -32.09375 24.523438 -32.171875 23.578125 -32.171875 Z M 23.578125 -32.171875 "/></g></g></g><g fill="#ffffff" fill-opacity="1"><g transform="translate(32.037584, 343.602726)"><g><path d="M 21.640625 -15.078125 L 17.65625 0 L 13.65625 0 L 11.078125 -12.53125 L 8.359375 0 L 4.34375 0 L 0.5625 -15.078125 L 3.828125 -15.078125 L 6.359375 -2.3125 L 9.015625 -14.859375 L 13.265625 -14.859375 L 15.84375 -2.265625 L 18.546875 -15.078125 Z M 21.640625 -15.078125 "/></g></g></g><g fill="#ffffff" fill-opacity="1"><g transform="translate(56.216181, 343.602726)"><g><path d="M 8.5625 -15.375 C 10.863281 -15.375 12.679688 -14.664062 14.015625 -13.25 C 15.347656 -11.832031 16.015625 -9.925781 16.015625 -7.53125 C 16.015625 -5.15625 15.347656 -3.253906 14.015625 -1.828125 C 12.679688 -0.398438 10.863281 0.3125 8.5625 0.3125 C 6.257812 0.3125 4.441406 -0.398438 3.109375 -1.828125 C 1.773438 -3.253906 1.109375 -5.15625 1.109375 -7.53125 C 1.109375 -9.925781 1.769531 -11.832031 3.09375 -13.25 C 4.425781 -14.664062 6.25 -15.375 8.5625 -15.375 Z M 5.40625 -3.40625 C 6.164062 -2.425781 7.21875 -1.9375 8.5625 -1.9375 C 9.90625 -1.9375 10.953125 -2.429688 11.703125 -3.421875 C 12.460938 -4.421875 12.84375 -5.789062 12.84375 -7.53125 C 12.84375 -9.289062 12.460938 -10.660156 11.703125 -11.640625 C 10.953125 -12.628906 9.90625 -13.125 8.5625 -13.125 C 7.207031 -13.125 6.148438 -12.628906 5.390625 -11.640625 C 4.640625 -10.660156 4.265625 -9.289062 4.265625 -7.53125 C 4.265625 -5.769531 4.644531 -4.394531 5.40625 -3.40625 Z M 5.40625 -3.40625 "/></g></g></g><g fill="#ffffff" fill-opacity="1"><g transform="translate(75.545954, 343.602726)"><g><path d="M 12.859375 -3.796875 C 13.054688 -2.003906 13.421875 -0.738281 13.953125 0 L 10.65625 0 C 10.289062 -1 10.046875 -2.117188 9.921875 -3.359375 C 9.710938 -5.066406 9.035156 -5.960938 7.890625 -6.046875 C 7.609375 -6.066406 7.210938 -6.078125 6.703125 -6.078125 L 4.953125 -6.078125 L 4.953125 0 L 1.9375 0 L 1.9375 -15.078125 L 7.453125 -15.078125 C 8.273438 -15.078125 9.003906 -15.039062 9.640625 -14.96875 C 10.828125 -14.820312 11.78125 -14.421875 12.5 -13.765625 C 13.226562 -13.117188 13.59375 -12.1875 13.59375 -10.96875 C 13.59375 -10.019531 13.328125 -9.234375 12.796875 -8.609375 C 12.273438 -7.992188 11.554688 -7.554688 10.640625 -7.296875 C 11.929688 -6.796875 12.671875 -5.628906 12.859375 -3.796875 Z M 4.953125 -8.328125 L 7.03125 -8.328125 C 7.625 -8.328125 8.03125 -8.332031 8.25 -8.34375 C 9.695312 -8.476562 10.421875 -9.195312 10.421875 -10.5 C 10.421875 -11.1875 10.25 -11.691406 9.90625 -12.015625 C 9.5625 -12.347656 9.070312 -12.554688 8.4375 -12.640625 C 8.082031 -12.691406 7.660156 -12.71875 7.171875 -12.71875 L 4.953125 -12.71875 Z M 4.953125 -8.328125 "/></g></g></g><g fill="#ffffff" fill-opacity="1"><g transform="translate(92.451299, 343.602726)"><g><path d="M 12.828125 -2.515625 L 12.828125 0 L 1.9375 0 L 1.9375 -15.078125 L 4.953125 -15.078125 L 4.953125 -2.515625 Z M 12.828125 -2.515625 "/></g></g></g><g fill="#ffffff" fill-opacity="1"><g transform="translate(108.264569, 343.602726)"><g><path d="M 9.0625 -14.984375 C 10.925781 -14.765625 12.425781 -14.050781 13.5625 -12.84375 C 14.695312 -11.632812 15.265625 -9.929688 15.265625 -7.734375 C 15.265625 -5.515625 14.679688 -3.738281 13.515625 -2.40625 C 12.359375 -1.082031 10.859375 -0.3125 9.015625 -0.09375 C 8.503906 -0.03125 7.863281 0 7.09375 0 L 1.9375 0 L 1.9375 -15.078125 L 7.140625 -15.078125 C 7.910156 -15.078125 8.550781 -15.046875 9.0625 -14.984375 Z M 8.34375 -2.453125 C 9.488281 -2.597656 10.394531 -3.128906 11.0625 -4.046875 C 11.738281 -4.960938 12.078125 -6.175781 12.078125 -7.6875 C 12.078125 -9.144531 11.75 -10.296875 11.09375 -11.140625 C 10.4375 -11.984375 9.539062 -12.476562 8.40625 -12.625 C 7.957031 -12.6875 7.421875 -12.71875 6.796875 -12.71875 L 4.953125 -12.71875 L 4.953125 -2.375 L 6.75 -2.375 C 7.488281 -2.375 8.019531 -2.398438 8.34375 -2.453125 Z M 8.34375 -2.453125 "/></g></g></g><g fill="#ffffff" fill-opacity="1"><g transform="translate(126.85173, 343.602726)"><g><path d="M 21.640625 -15.078125 L 17.65625 0 L 13.65625 0 L 11.078125 -12.53125 L 8.359375 0 L 4.34375 0 L 0.5625 -15.078125 L 3.828125 -15.078125 L 6.359375 -2.3125 L 9.015625 -14.859375 L 13.265625 -14.859375 L 15.84375 -2.265625 L 18.546875 -15.078125 Z M 21.640625 -15.078125 "/></g></g></g><g fill="#ffffff" fill-opacity="1"><g transform="translate(151.030331, 343.602726)"><g><path d="M 4.953125 0 L 1.9375 0 L 1.9375 -15.078125 L 4.953125 -15.078125 Z M 4.953125 0 "/></g></g></g><g fill="#ffffff" fill-opacity="1"><g transform="translate(160.029047, 343.602726)"><g><path d="M 9.0625 -14.984375 C 10.925781 -14.765625 12.425781 -14.050781 13.5625 -12.84375 C 14.695312 -11.632812 15.265625 -9.929688 15.265625 -7.734375 C 15.265625 -5.515625 14.679688 -3.738281 13.515625 -2.40625 C 12.359375 -1.082031 10.859375 -0.3125 9.015625 -0.09375 C 8.503906 -0.03125 7.863281 0 7.09375 0 L 1.9375 0 L 1.9375 -15.078125 L 7.140625 -15.078125 C 7.910156 -15.078125 8.550781 -15.046875 9.0625 -14.984375 Z M 8.34375 -2.453125 C 9.488281 -2.597656 10.394531 -3.128906 11.0625 -4.046875 C 11.738281 -4.960938 12.078125 -6.175781 12.078125 -7.6875 C 12.078125 -9.144531 11.75 -10.296875 11.09375 -11.140625 C 10.4375 -11.984375 9.539062 -12.476562 8.40625 -12.625 C 7.957031 -12.6875 7.421875 -12.71875 6.796875 -12.71875 L 4.953125 -12.71875 L 4.953125 -2.375 L 6.75 -2.375 C 7.488281 -2.375 8.019531 -2.398438 8.34375 -2.453125 Z M 8.34375 -2.453125 "/></g></g></g><g fill="#ffffff" fill-opacity="1"><g transform="translate(178.616208, 343.602726)"><g><path d="M 12.828125 -2.375 L 12.828125 0 L 1.9375 0 L 1.9375 -15.078125 L 12.609375 -15.078125 L 12.609375 -12.71875 L 4.953125 -12.71875 L 4.953125 -8.734375 L 12.0625 -8.734375 L 12.0625 -6.359375 L 4.953125 -6.359375 L 4.953125 -2.375 Z M 12.828125 -2.375 "/></g></g></g><g fill="#ffffff" fill-opacity="1"><g transform="translate(194.691598, 343.602726)"><g/></g></g><g fill="#ffffff" fill-opacity="1"><g transform="translate(201.549838, 343.602726)"><g><path d="M 4.953125 -12.71875 L 4.953125 -8.734375 L 11.84375 -8.734375 L 11.84375 -6.359375 L 4.953125 -6.359375 L 4.953125 0 L 1.9375 0 L 1.9375 -15.078125 L 12.609375 -15.078125 L 12.609375 -12.71875 Z M 4.953125 -12.71875 "/></g></g></g><g fill="#ffffff" fill-opacity="1"><g transform="translate(217.122846, 343.602726)"><g><path d="M 12.828125 -2.375 L 12.828125 0 L 1.9375 0 L 1.9375 -15.078125 L 12.609375 -15.078125 L 12.609375 -12.71875 L 4.953125 -12.71875 L 4.953125 -8.734375 L 12.0625 -8.734375 L 12.0625 -6.359375 L 4.953125 -6.359375 L 4.953125 -2.375 Z M 12.828125 -2.375 "/></g></g></g><g fill="#ffffff" fill-opacity="1"><g transform="translate(233.198235, 343.602726)"><g><path d="M 6.953125 -15.375 C 8.671875 -15.375 9.984375 -14.941406 10.890625 -14.078125 C 11.796875 -13.222656 12.335938 -12.078125 12.515625 -10.640625 L 9.4375 -10.640625 C 9.351562 -11.421875 9.09375 -12.03125 8.65625 -12.46875 C 8.21875 -12.90625 7.613281 -13.125 6.84375 -13.125 C 6.207031 -13.125 5.691406 -12.96875 5.296875 -12.65625 C 4.910156 -12.351562 4.71875 -11.914062 4.71875 -11.34375 C 4.71875 -10.695312 4.953125 -10.191406 5.421875 -9.828125 C 5.898438 -9.460938 6.734375 -9.144531 7.921875 -8.875 C 9.566406 -8.488281 10.78125 -7.910156 11.5625 -7.140625 C 12.34375 -6.367188 12.734375 -5.375 12.734375 -4.15625 C 12.734375 -2.78125 12.191406 -1.691406 11.109375 -0.890625 C 10.035156 -0.0859375 8.722656 0.3125 7.171875 0.3125 C 5.328125 0.3125 3.859375 -0.09375 2.765625 -0.90625 C 1.679688 -1.71875 1.066406 -2.898438 0.921875 -4.453125 L 4 -4.453125 C 4.15625 -3.648438 4.515625 -3.03125 5.078125 -2.59375 C 5.648438 -2.15625 6.332031 -1.9375 7.125 -1.9375 C 7.820312 -1.9375 8.40625 -2.113281 8.875 -2.46875 C 9.351562 -2.820312 9.59375 -3.28125 9.59375 -3.84375 C 9.59375 -4.488281 9.363281 -5.003906 8.90625 -5.390625 C 8.445312 -5.785156 7.671875 -6.113281 6.578125 -6.375 C 4.890625 -6.78125 3.628906 -7.320312 2.796875 -8 C 1.960938 -8.675781 1.546875 -9.664062 1.546875 -10.96875 C 1.546875 -12.300781 2.070312 -13.367188 3.125 -14.171875 C 4.175781 -14.972656 5.453125 -15.375 6.953125 -15.375 Z M 6.953125 -15.375 "/></g></g></g><g fill="#ffffff" fill-opacity="1"><g transform="translate(249.098879, 343.602726)"><g><path d="M 13.734375 -12.71875 L 8.625 -12.71875 L 8.625 0 L 5.609375 0 L 5.609375 -12.71875 L 0.5 -12.71875 L 0.5 -15.078125 L 13.734375 -15.078125 Z M 13.734375 -12.71875 "/></g></g></g><g fill="#ffffff" fill-opacity="1"><g transform="translate(265.327144, 343.602726)"><g><path d="M 4.953125 0 L 1.9375 0 L 1.9375 -15.078125 L 4.953125 -15.078125 Z M 4.953125 0 "/></g></g></g><g fill="#ffffff" fill-opacity="1"><g transform="translate(274.325861, 343.602726)"><g><path d="M 9.8125 0 L 6.03125 0 L 0.703125 -15.078125 L 3.96875 -15.078125 L 7.96875 -2.3125 L 12.03125 -15.078125 L 15.25 -15.078125 Z M 9.8125 0 "/></g></g></g><g fill="#ffffff" fill-opacity="1"><g transform="translate(291.973829, 343.602726)"><g><path d="M 10.109375 -4.546875 L 5.046875 -4.546875 L 3.53125 0 L 0.328125 0 L 5.765625 -15.078125 L 9.546875 -15.078125 L 14.875 0 L 11.59375 0 Z M 7.609375 -12.5 L 5.8125 -6.921875 L 9.34375 -6.921875 Z M 7.609375 -12.5 "/></g></g></g><g fill="#ffffff" fill-opacity="1"><g transform="translate(309.359706, 343.602726)"><g><path d="M 12.828125 -2.515625 L 12.828125 0 L 1.9375 0 L 1.9375 -15.078125 L 4.953125 -15.078125 L 4.953125 -2.515625 Z M 12.828125 -2.515625 "/></g></g></g><g fill="#ffffff" fill-opacity="1"><g transform="translate(325.172976, 343.602726)"><g><path d="M 6.953125 -15.375 C 8.671875 -15.375 9.984375 -14.941406 10.890625 -14.078125 C 11.796875 -13.222656 12.335938 -12.078125 12.515625 -10.640625 L 9.4375 -10.640625 C 9.351562 -11.421875 9.09375 -12.03125 8.65625 -12.46875 C 8.21875 -12.90625 7.613281 -13.125 6.84375 -13.125 C 6.207031 -13.125 5.691406 -12.96875 5.296875 -12.65625 C 4.910156 -12.351562 4.71875 -11.914062 4.71875 -11.34375 C 4.71875 -10.695312 4.953125 -10.191406 5.421875 -9.828125 C 5.898438 -9.460938 6.734375 -9.144531 7.921875 -8.875 C 9.566406 -8.488281 10.78125 -7.910156 11.5625 -7.140625 C 12.34375 -6.367188 12.734375 -5.375 12.734375 -4.15625 C 12.734375 -2.78125 12.191406 -1.691406 11.109375 -0.890625 C 10.035156 -0.0859375 8.722656 0.3125 7.171875 0.3125 C 5.328125 0.3125 3.859375 -0.09375 2.765625 -0.90625 C 1.679688 -1.71875 1.066406 -2.898438 0.921875 -4.453125 L 4 -4.453125 C 4.15625 -3.648438 4.515625 -3.03125 5.078125 -2.59375 C 5.648438 -2.15625 6.332031 -1.9375 7.125 -1.9375 C 7.820312 -1.9375 8.40625 -2.113281 8.875 -2.46875 C 9.351562 -2.820312 9.59375 -3.28125 9.59375 -3.84375 C 9.59375 -4.488281 9.363281 -5.003906 8.90625 -5.390625 C 8.445312 -5.785156 7.671875 -6.113281 6.578125 -6.375 C 4.890625 -6.78125 3.628906 -7.320312 2.796875 -8 C 1.960938 -8.675781 1.546875 -9.664062 1.546875 -10.96875 C 1.546875 -12.300781 2.070312 -13.367188 3.125 -14.171875 C 4.175781 -14.972656 5.453125 -15.375 6.953125 -15.375 Z M 6.953125 -15.375 "/></g></g></g></svg>